<svg xmlns="http://www.w3.org/2000/svg" viewBox="0 0 512 512"><title>Artboard 117</title><g id="Arc_de_Triomphe" data-name="Arc de Triomphe"><rect x="42.66667" y="42.66667" width="426.66667" height="448" style="fill:#b37900"/><rect x="362.66667" y="234.66667" width="106.66667" height="64" style="fill:#d6a436"/><polygon points="469.333 341.333 448 341.333 448 320 448 298.667 490.667 298.667 490.667 320 469.333 341.333" style="fill:#d6a436"/><rect x="362.66667" y="341.33333" width="42.66667" height="21.33333" style="fill:#9e6611"/><path d="M426.66665,256h0A21.33331,21.33331,0,0,1,448,277.33331v192a0,0,0,0,1,0,0H405.33333a0,0,0,0,1,0,0v-192A21.33331,21.33331,0,0,1,426.66665,256Z" style="fill:#701600"/><rect x="42.66667" y="170.66667" width="426.66667" height="21.33333" style="fill:#9e6611"/><rect x="42.66667" y="64" width="426.66667" height="21.33333" style="fill:#9e6611"/><rect x="42.66667" y="42.66667" width="320" height="448" style="fill:#d6a436"/><rect x="256" y="405.33333" width="106.66667" height="64" style="fill:#cb8c01"/><rect x="42.66667" y="405.33333" width="106.66667" height="64" style="fill:#cb8c01"/><rect x="106.66667" y="426.66667" width="42.66667" height="42.66667" transform="translate(256 896) rotate(180)" style="fill:#d6a436"/><rect x="320" y="426.66667" width="42.66667" height="42.66667" transform="translate(682.66667 896) rotate(180)" style="fill:#d6a436"/><rect x="42.66667" y="234.66667" width="85.33333" height="64" style="fill:#e0bb69"/><rect x="277.33333" y="234.66667" width="85.33333" height="64" style="fill:#e0bb69"/><rect x="128" y="234.66667" width="149.33333" height="64" style="fill:#cb8c01"/><path d="M277.33333,320H256V309.33333a53.33333,53.33333,0,0,0-106.66667,0V320H128V309.33333a74.66667,74.66667,0,0,1,149.33333,0Z" style="fill:#e0bb69"/><rect x="42.66667" y="64" width="320" height="42.66667" style="fill:#cb8c01"/><path d="M202.66661,256h.00011A53.33328,53.33328,0,0,1,256,309.33328V490.66667a0,0,0,0,1,0,0H149.33333a0,0,0,0,1,0,0V309.33328A53.33328,53.33328,0,0,1,202.66661,256Z" style="fill:#851f00"/><rect x="149.33333" y="448" width="106.66667" height="21.33333" transform="translate(405.33333 917.33333) rotate(180)" style="fill:#a84400"/><path d="M170.66667,469.33333H149.33333v-160A53.38942,53.38942,0,0,1,202.66667,256v21.33333a32.035,32.035,0,0,0-32,32Z" style="fill:#701600"/><polygon points="256 341.333 42.667 341.333 21.333 320 21.333 298.667 256 298.667 256 341.333" style="fill:#9d3100"/><rect x="21.33333" y="469.33333" width="234.66667" height="21.33333" style="fill:#d6a436"/><polygon points="469.333 64 42.667 64 21.333 42.667 21.333 21.333 490.667 21.333 490.667 42.667 469.333 64" style="fill:#d6a436"/><polygon points="362.667 64 42.667 64 21.333 42.667 21.333 21.333 341.333 21.333 341.333 42.667 362.667 64" style="fill:#e0bb69"/><rect x="21.33333" y="21.33333" width="320" height="21.33333" style="fill:#efddb4"/><polygon points="149.333 341.333 42.667 341.333 21.333 320 21.333 298.667 128 298.667 128 320 149.333 341.333" style="fill:#e0bb69"/><polygon points="405.333 341.333 256 341.333 234.667 320 234.667 298.667 426.667 298.667 426.667 320 405.333 341.333" style="fill:#d6a436"/><rect x="341.33333" y="298.66667" width="85.33333" height="21.33333" style="fill:#e0bb69"/><polygon points="469.333 341.333 448 341.333 469.333 320 469.333 298.667 490.667 298.667 490.667 320 469.333 341.333" style="fill:#e0bb69"/><polygon points="362.667 341.333 256 341.333 234.667 320 234.667 298.667 341.333 298.667 341.333 320 362.667 341.333" style="fill:#e0bb69"/><polygon points="469.333 170.667 42.667 170.667 21.333 149.333 21.333 106.667 490.667 106.667 490.667 149.333 469.333 170.667" style="fill:#d6a436"/><polygon points="362.667 170.667 42.667 170.667 21.333 149.333 21.333 106.667 341.333 106.667 341.333 149.333 362.667 170.667" style="fill:#e0bb69"/><rect x="21.33333" y="469.33333" width="149.33333" height="21.33333" style="fill:#e0bb69"/><rect x="234.66667" y="469.33333" width="256" height="21.33333" style="fill:#d6a436"/><rect x="234.66667" y="469.33333" width="149.33333" height="21.33333" style="fill:#e0bb69"/><rect x="42.66667" y="341.33333" width="106.66667" height="21.33333" style="fill:#cb8c01"/><rect x="256" y="341.33333" width="106.66667" height="21.33333" style="fill:#cb8c01"/><rect x="42.66667" y="170.66667" width="320" height="21.33333" style="fill:#cb8c01"/><rect x="362.66667" y="448.00001" width="106.66667" height="21.33333" transform="translate(832 917.33334) rotate(180)" style="fill:#b37900"/><rect x="42.66667" y="64" width="21.33333" height="21.33333" style="fill:#d6a436"/><rect x="64" y="85.33333" width="21.33333" height="21.33333" style="fill:#d6a436"/><rect x="85.33333" y="64" width="21.33333" height="21.33333" style="fill:#d6a436"/><rect x="106.66667" y="85.33333" width="21.33333" height="21.33333" style="fill:#d6a436"/><rect x="128" y="64" width="21.33333" height="21.33333" style="fill:#d6a436"/><rect x="149.33333" y="85.33333" width="21.33333" height="21.33333" style="fill:#d6a436"/><rect x="170.66667" y="64" width="21.33333" height="21.33333" style="fill:#d6a436"/><rect x="192" y="85.33333" width="21.33333" height="21.33333" style="fill:#d6a436"/><rect x="213.33333" y="64" width="21.33333" height="21.33333" style="fill:#d6a436"/><rect x="234.66667" y="85.33333" width="21.33333" height="21.33333" style="fill:#d6a436"/><rect x="256" y="64" width="21.33333" height="21.33333" style="fill:#d6a436"/><rect x="277.33333" y="85.33333" width="21.33333" height="21.33333" style="fill:#d6a436"/><rect x="298.66667" y="64" width="21.33333" height="21.33333" style="fill:#d6a436"/><rect x="320" y="85.33333" width="21.33333" height="21.33333" style="fill:#d6a436"/><rect x="341.33333" y="64" width="21.33333" height="21.33333" style="fill:#d6a436"/><polygon points="362.667 170.667 42.667 170.667 21.333 149.333 384 149.333 362.667 170.667" style="fill:#d6a436"/><polygon points="469.333 170.667 362.667 170.667 341.333 149.333 490.667 149.333 469.333 170.667" style="fill:#cb8c01"/><polygon points="469.333 64 362.667 64 341.333 42.667 490.667 42.667 469.333 64" style="fill:#cb8c01"/><rect x="64" y="256" width="42.66667" height="21.33333" style="fill:#cb8c01"/><rect x="298.66667" y="256" width="42.66667" height="21.33333" style="fill:#cb8c01"/><rect x="21.33333" y="298.66667" width="106.66667" height="21.33333" style="fill:#efddb4"/><rect x="234.66667" y="298.66667" width="106.66667" height="21.33333" style="fill:#efddb4"/><rect x="149.33333" y="341.33333" width="106.66667" height="21.33333" style="fill:#701600"/><rect x="362.66667" y="448" width="106.66667" height="21.33333" style="fill:#9e6611"/><rect x="64" y="426.66667" width="42.66667" height="42.66667" style="fill:#e0bb69"/><rect x="106.66667" y="426.66667" width="21.33333" height="42.66667" style="fill:#d6a436"/><rect x="42.66667" y="405.33333" width="106.66667" height="21.33333" style="fill:#e0bb69"/><rect x="64" y="405.33333" width="42.66667" height="21.33333" style="fill:#efddb4"/><rect x="277.33333" y="426.66667" width="42.66667" height="42.66667" style="fill:#e0bb69"/><rect x="256" y="405.33333" width="106.66667" height="21.33333" style="fill:#e0bb69"/><rect x="277.33333" y="405.33333" width="42.66667" height="21.33333" style="fill:#efddb4"/><path d="M341.33333,149.33333H320V138.66667C319.875,133.86458,317.91667,128,309.33333,128s-10.54166,5.86458-10.66666,10.79167l-.27084,10.39583L256,149.33333V138.66667C255.875,133.86458,253.91667,128,245.33333,128s-10.54166,5.86458-10.66666,10.79167l-.27084,10.39583L192,149.33333V138.66667C191.875,133.86458,189.91667,128,181.33333,128s-10.54166,5.86458-10.66666,10.79167l-.27084,10.39583L128,149.33333V138.66667C127.875,133.86458,125.91667,128,117.33333,128s-10.54166,5.86458-10.66666,10.79167l-.27084,10.39583L64,149.33333V138.66667C63.875,133.86458,61.91667,128,53.33333,128s-10.54166,5.86458-10.66666,10.79167v10.54166H21.33333V138.66667c0-12.86459,8.52084-32,32-32C70.8125,106.66667,80,117.27083,83.5625,128h3.54167c3.5625-10.72917,12.75-21.33333,30.22916-21.33333S144,117.27083,147.5625,128h3.54167c3.5625-10.72917,12.75-21.33333,30.22916-21.33333S208,117.27083,211.5625,128h3.54167c3.5625-10.72917,12.75-21.33333,30.22916-21.33333S272,117.27083,275.5625,128h3.54167c3.5625-10.72917,12.75-21.33333,30.22916-21.33333,23.47917,0,32,19.13541,32,32Z" style="fill:#efddb4"/><path d="M490.66667,149.33333H448V138.66667C447.875,133.86458,445.91667,128,437.33333,128s-10.54166,5.86458-10.66666,10.79167l-.27084,10.39583L384,149.33333V138.66667C383.875,133.86458,381.91667,128,373.33333,128s-10.54166,5.86458-10.66666,10.79167v10.54166H341.33333V138.66667c0-12.86459,8.52084-32,32-32C390.8125,106.66667,400,117.27083,403.5625,128h3.54167c3.5625-10.72917,12.75-21.33333,30.22916-21.33333S464,117.27083,467.5625,128h23.10417Z" style="fill:#e0bb69"/></g></svg>