<svg xmlns="http://www.w3.org/2000/svg" viewBox="0 0 512 512"><title>Artboard 128</title><g id="Buckingham_Palace" data-name="Buckingham Palace"><polygon points="384 149.333 362.667 149.333 149.333 149.333 128 149.333 128 170.667 149.333 170.667 149.333 490.667 362.667 490.667 362.667 170.667 384 170.667 384 149.333" style="fill:#d6a436"/><rect x="320" y="170.66667" width="42.66667" height="21.33333" style="fill:#cb8c01"/><polygon points="341.333 170.667 341.333 149.333 320 149.333 149.333 149.333 128 149.333 128 170.667 149.333 170.667 149.333 490.667 320 490.667 320 170.667 341.333 170.667" style="fill:#e9cf95"/><rect x="256" y="149.33333" width="85.33333" height="21.33333" style="fill:#e0bb69"/><rect x="149.33333" y="170.66667" width="170.66667" height="21.33333" transform="translate(469.33333 362.66667) rotate(180)" style="fill:#d6a436"/><rect x="42.66667" y="213.33333" width="426.66667" height="277.33333" style="fill:#d6a436"/><path d="M128,469.33333H106.66667V426.66667a21.35443,21.35443,0,0,0-21.33334-21.33334V384A42.71555,42.71555,0,0,1,128,426.66667Z" style="fill:#e0bb69"/><rect x="362.66667" y="213.33333" width="106.66667" height="277.33333" style="fill:#cb8c01"/><path d="M405.33333,469.33333H384V426.66667a21.35443,21.35443,0,0,0-21.33333-21.33334V384a42.71555,42.71555,0,0,1,42.66666,42.66667Z" style="fill:#d6a436"/><path d="M469.33333,469.33333H448V426.66667a21.35443,21.35443,0,0,0-21.33333-21.33334V384a42.71555,42.71555,0,0,1,42.66666,42.66667Z" style="fill:#d6a436"/><rect x="362.66667" y="213.33333" width="106.66667" height="42.66667" style="fill:#9e6611"/><polygon points="42.667 234.667 85.333 192 128 234.667 128 256 42.667 256 42.667 234.667" style="fill:#e0bb69"/><polygon points="384 234.667 426.667 192 469.333 234.667 469.333 256 384 256 384 234.667" style="fill:#cb8c01"/><rect x="21.33333" y="384" width="469.33333" height="21.33333" style="fill:#e0bb69"/><rect x="128" y="384" width="362.66667" height="21.33333" style="fill:#d6a436"/><rect x="42.66667" y="405.33333" width="106.66667" height="21.33333" style="fill:#cb8c01"/><rect x="362.66667" y="405.33333" width="106.66667" height="21.33333" style="fill:#b37900"/><rect x="170.66667" y="383.99981" width="170.66667" height="21.33333" style="fill:#b37900"/><rect x="170.66667" y="384" width="21.33333" height="85.33333" style="fill:#b37900"/><rect x="298.66667" y="384" width="21.33333" height="85.33333" style="fill:#b37900"/><rect x="170.66667" y="277.33314" width="170.66667" height="21.33333" style="fill:#b37900"/><path d="M490.66667,234.66667H21.33333V256s21.33341,0,21.33341,21.33333H469.33333C469.33333,256,490.66667,256,490.66667,256Z" style="fill:#cb8c01"/><rect x="21.33333" y="234.66667" width="469.33333" height="21.33333" style="fill:#e9cf95"/><rect x="21.33333" y="234.66667" width="21.33333" height="21.33333" style="fill:#efddb4"/><rect x="128" y="234.66667" width="362.66667" height="21.33333" style="fill:#d6a436"/><rect x="149.33333" y="213.33333" width="213.33333" height="42.66667" style="fill:#b37900"/><rect x="149.33333" y="213.33333" width="170.66667" height="42.66667" style="fill:#cb8c01"/><path d="M85.33331,298.66667h0A21.33331,21.33331,0,0,1,106.66667,320v42.66669a0,0,0,0,1,0,0H64a0,0,0,0,1,0,0V320a21.33331,21.33331,0,0,1,21.33331-21.33331Z" style="fill:#403248"/><path d="M85.33331,405.33333h0a21.33331,21.33331,0,0,1,21.33331,21.33331v42.66669a0,0,0,0,1,0,0H64a0,0,0,0,1,0,0V426.66665a21.33331,21.33331,0,0,1,21.33331-21.33331Z" style="fill:#403248"/><path d="M256,405.33333h0a21.33331,21.33331,0,0,1,21.33331,21.33331v42.66669a0,0,0,0,1,0,0H234.66667a0,0,0,0,1,0,0V426.66665A21.33331,21.33331,0,0,1,256,405.33333Z" style="fill:#5f5366"/><path d="M192,298.66667h0A21.33331,21.33331,0,0,1,213.33333,320v42.66669a0,0,0,0,1,0,0H170.66667a0,0,0,0,1,0,0V320A21.33331,21.33331,0,0,1,192,298.66667Z" style="fill:#5f5366"/><path d="M256,298.66667h0A21.33331,21.33331,0,0,1,277.33333,320v42.66669a0,0,0,0,1,0,0H234.66667a0,0,0,0,1,0,0V320A21.33331,21.33331,0,0,1,256,298.66667Z" style="fill:#5f5366"/><path d="M320,298.66667h0A21.33331,21.33331,0,0,1,341.33333,320v42.66669a0,0,0,0,1,0,0H298.66667a0,0,0,0,1,0,0V320A21.33331,21.33331,0,0,1,320,298.66667Z" style="fill:#5f5366"/><path d="M149.33331,298.66667h0A21.33331,21.33331,0,0,1,170.66667,320v42.66669a0,0,0,0,1,0,0H128a0,0,0,0,1,0,0V320A21.33331,21.33331,0,0,1,149.33331,298.66667Z" style="fill:#403248"/><path d="M149.33331,405.33333h0a21.33331,21.33331,0,0,1,21.33331,21.33331v42.66669a0,0,0,0,1,0,0H128a0,0,0,0,1,0,0V426.66665A21.33331,21.33331,0,0,1,149.33331,405.33333Z" style="fill:#403248"/><path d="M426.66665,298.66667h0A21.33331,21.33331,0,0,1,448,320v42.66669a0,0,0,0,1,0,0H405.33333a0,0,0,0,1,0,0V320a21.33331,21.33331,0,0,1,21.33331-21.33331Z" style="fill:#2f2038"/><path d="M426.66665,405.33333h0A21.33331,21.33331,0,0,1,448,426.66665v42.66669a0,0,0,0,1,0,0H405.33333a0,0,0,0,1,0,0V426.66665A21.33331,21.33331,0,0,1,426.66665,405.33333Z" style="fill:#2f2038"/><path d="M362.66665,298.66667h0A21.33331,21.33331,0,0,1,384,320v42.66669a0,0,0,0,1,0,0H341.33333a0,0,0,0,1,0,0V320a21.33331,21.33331,0,0,1,21.33331-21.33331Z" style="fill:#403248"/><path d="M362.66665,405.33333h0A21.33331,21.33331,0,0,1,384,426.66665v42.66669a0,0,0,0,1,0,0H341.33333a0,0,0,0,1,0,0V426.66665A21.33331,21.33331,0,0,1,362.66665,405.33333Z" style="fill:#403248"/><polygon points="128 213.333 256 149.333 384 213.333 384 234.667 128 234.667 128 213.333" style="fill:#e0bb69"/><rect x="149.33333" y="277.33333" width="21.33333" height="213.33333" style="fill:#efddb4"/><rect x="341.33333" y="277.33333" width="21.33333" height="213.33333" style="fill:#efddb4"/><rect x="213.33333" y="277.33333" width="21.33333" height="213.33333" style="fill:#efddb4"/><rect x="277.33333" y="277.33333" width="21.33333" height="213.33333" style="fill:#efddb4"/><rect x="149.33333" y="277.33333" width="21.33333" height="21.33333" style="fill:#e0bb69"/><rect x="341.33333" y="277.33333" width="21.33333" height="21.33333" style="fill:#e9cf95"/><rect x="213.33333" y="277.33333" width="21.33333" height="21.33333" style="fill:#e0bb69"/><rect x="277.33333" y="277.33333" width="21.33333" height="21.33333" style="fill:#e0bb69"/><rect x="149.33333" y="384" width="21.33333" height="21.33333" style="fill:#e0bb69"/><rect x="341.33333" y="384" width="21.33333" height="21.33333" style="fill:#e9cf95"/><rect x="213.33333" y="384" width="21.33333" height="21.33333" style="fill:#e0bb69"/><rect x="277.33333" y="384" width="21.33333" height="21.33333" style="fill:#e0bb69"/><rect x="128" y="469.33333" width="256" height="21.33333" style="fill:#f4e8cc"/><rect x="128" y="256" width="256" height="21.33333" style="fill:#efddb4"/><rect x="192" y="426.66667" width="21.33333" height="21.33333" style="fill:#5f5366"/><rect x="298.66667" y="426.66667" width="21.33333" height="21.33333" style="fill:#5f5366"/><rect x="128" y="362.66667" width="256" height="21.33333" style="fill:#f4e8cc"/><polygon points="234.667 160 128 213.333 128 234.667 341.333 234.667 341.333 213.333 234.667 160" style="fill:#efddb4"/><rect x="128" y="213.33333" width="149.33333" height="21.33333" style="fill:#f4e8cc"/><rect x="341.33333" y="469.33333" width="42.66667" height="21.33333" transform="translate(725.33333 960) rotate(180)" style="fill:#e0bb69"/><rect x="341.33333" y="256" width="42.66667" height="21.33333" transform="translate(725.33333 533.33333) rotate(180)" style="fill:#e0bb69"/><rect x="341.33333" y="362.66657" width="42.66667" height="21.33333" transform="translate(725.33333 746.66648) rotate(180)" style="fill:#e0bb69"/><rect x="234.66667" y="21.33333" width="21.33333" height="128" style="fill:#edf0f2"/><rect x="234.66667" y="106.66667" width="21.33333" height="21.33333" style="fill:#ccd4da"/><path d="M341.33333,128c-21.33333,0-64-21.33333-64-21.33333H234.66667v-64h42.66664S320,64,341.33333,64Z" style="fill:#cb8c01"/><rect x="234.66667" y="64" width="42.66667" height="42.66667" style="fill:#456075"/><rect x="64" y="320" width="21.33333" height="42.66667" style="fill:#2f2038"/><rect x="64" y="426.66667" width="21.33333" height="42.66667" style="fill:#2f2038"/><rect x="405.33333" y="320" width="21.33333" height="42.66667" style="fill:#25152e"/><rect x="405.33333" y="426.66667" width="21.33333" height="42.66667" style="fill:#25152e"/><rect x="128" y="320" width="21.33333" height="42.66667" style="fill:#2f2038"/><rect x="128" y="426.66667" width="21.33333" height="42.66667" style="fill:#2f2038"/><rect x="170.66667" y="320" width="21.33333" height="42.66667" style="fill:#403248"/><rect x="234.66667" y="320" width="21.33333" height="42.66667" style="fill:#403248"/><rect x="298.66667" y="320" width="21.33333" height="42.66667" style="fill:#403248"/><rect x="234.66667" y="426.66667" width="21.33333" height="42.66667" style="fill:#403248"/><path d="M384,256H490.66667s-21.33334,0-21.33334,21.33333H384Z" style="fill:#b37900"/><path d="M128,362.66667H106.66667V320a21.35443,21.35443,0,0,0-21.33334-21.33333V277.33333A42.71555,42.71555,0,0,1,128,320Z" style="fill:#e0bb69"/><path d="M405.33333,362.66667H384V320a21.35442,21.35442,0,0,0-21.33333-21.33333V277.33333A42.71555,42.71555,0,0,1,405.33333,320Z" style="fill:#d6a436"/><path d="M469.33333,362.66667H448V320a21.35442,21.35442,0,0,0-21.33333-21.33333V277.33333A42.71555,42.71555,0,0,1,469.33333,320Z" style="fill:#d6a436"/><rect x="192" y="192" width="21.33333" height="21.33333" style="fill:#f4e8cc"/><rect x="234.66667" y="170.66667" width="21.33333" height="21.33333" style="fill:#f4e8cc"/><rect x="128" y="149.33333" width="21.33333" height="21.33333" style="fill:#efddb4"/><rect x="277.33333" y="192" width="21.33333" height="21.33333" style="fill:#f4e8cc"/><rect x="64" y="213.33333" width="21.33333" height="21.33333" style="fill:#e9cf95"/><rect x="426.66667" y="213.33333" width="21.33333" height="21.33333" style="fill:#d6a436"/><rect x="405.33333" y="234.66667" width="21.33333" height="21.33333" style="fill:#e0bb69"/><rect x="42.66667" y="298.66667" width="21.33333" height="21.33333" style="fill:#e0bb69"/><rect x="85.33333" y="362.66667" width="21.33333" height="21.33333" style="fill:#e0bb69"/><rect x="42.66667" y="448" width="21.33333" height="21.33333" style="fill:#e0bb69"/><rect x="426.66667" y="469.33333" width="21.33333" height="21.33333" style="fill:#d6a436"/><rect x="405.33333" y="362.66667" width="21.33333" height="21.33333" style="fill:#d6a436"/></g></svg>