<svg xmlns="http://www.w3.org/2000/svg" viewBox="0 0 512 512"><title>Artboard 158</title><g id="Santorini"><path d="M415.99995,128h.00011a53.33328,53.33328,0,0,1,53.33328,53.33328v32.00005a0,0,0,0,1,0,0H362.66667a0,0,0,0,1,0,0V181.33328A53.33328,53.33328,0,0,1,415.99995,128Z" style="fill:#456075"/><path d="M426.06365,173.2969c-5.12948-33.848-57.66449-33.848-62.794,0a53.60985,53.60985,0,0,0-.603,8.03643v32h64v-32A53.61117,53.61117,0,0,0,426.06365,173.2969Z" style="fill:#556e81"/><rect x="341.33333" y="170.66667" width="149.33333" height="106.66667" style="fill:#7f92a0"/><path d="M405.33333,256H384V234.66667a21.34774,21.34774,0,0,0-21.33333-21.33334V192a42.72224,42.72224,0,0,1,42.66666,42.66667Z" style="fill:#93a3af"/><rect x="341.33333" y="170.66667" width="21.33333" height="106.66667" style="fill:#677e8f"/><path d="M362.66669,213.33333h0a21.33332,21.33332,0,0,0-21.33332,21.33332V256H384V234.66665A21.33331,21.33331,0,0,0,362.66669,213.33333Z" style="fill:#556e81"/><rect x="405.33333" y="170.66667" width="85.33333" height="106.66667" style="fill:#677e8f"/><rect x="21.33333" y="256" width="469.33333" height="128" style="fill:#adb9c2"/><rect x="21.33333" y="256" width="320" height="128" style="fill:#ccd4da"/><path d="M191.99987,21.33333h.00026A127.99987,127.99987,0,0,1,320,149.3332v.00013a0,0,0,0,1,0,0H64a0,0,0,0,1,0,0v-.00013A127.99987,127.99987,0,0,1,191.99987,21.33333Z" style="fill:#456075"/><path d="M64.73022,135.5945A129.16149,129.16149,0,0,0,64,149.33333H234.66667a129.16149,129.16149,0,0,0-.73022-13.73883C223.58388,38.79665,75.08279,38.79665,64.73022,135.5945Z" style="fill:#556e81"/><rect x="42.66667" y="106.66667" width="298.66667" height="192" style="fill:#93a3af"/><path d="M277.33333,234.66667H256V192a21.34774,21.34774,0,0,0-21.33333-21.33333V149.33333A42.72225,42.72225,0,0,1,277.33333,192Z" style="fill:#b8c3cb"/><path d="M341.33333,234.66667H320V192a21.34774,21.34774,0,0,0-21.33333-21.33333V149.33333A42.72225,42.72225,0,0,1,341.33333,192Z" style="fill:#b8c3cb"/><path d="M234.66665,170.66667h0A21.33331,21.33331,0,0,1,256,192v64a0,0,0,0,1,0,0H213.33333a0,0,0,0,1,0,0V192a21.33331,21.33331,0,0,1,21.33331-21.33331Z" style="fill:#556e81"/><path d="M298.66665,170.66667h0A21.33331,21.33331,0,0,1,320,192v64a0,0,0,0,1,0,0H277.33333a0,0,0,0,1,0,0V192a21.33331,21.33331,0,0,1,21.33331-21.33331Z" style="fill:#556e81"/><rect x="42.66667" y="106.66667" width="149.33333" height="192" style="fill:#b8c3cb"/><path d="M170.66667,256H149.33333V202.66667a32.035,32.035,0,0,0-32-32V149.33333a53.38274,53.38274,0,0,1,53.33334,53.33334Z" style="fill:#ccd4da"/><rect x="42.66667" y="128" width="149.33333" height="21.33333" style="fill:#93a3af"/><rect x="192" y="128" width="149.33333" height="21.33333" style="fill:#7f92a0"/><rect x="21.33333" y="256" width="341.33333" height="64" style="fill:#ccd4da"/><rect x="64" y="256" width="106.66667" height="21.33333" style="fill:#7f92a0"/><rect x="42.66667" y="277.33333" width="106.66667" height="21.33333" style="fill:#93a3af"/><rect x="21.33333" y="298.66667" width="106.66667" height="21.33333" style="fill:#adb9c2"/><path d="M117.3333,170.66667h.00006a32,32,0,0,1,32,32V256a0,0,0,0,1,0,0h-64a0,0,0,0,1,0,0V202.66663a32,32,0,0,1,32-32Z" style="fill:#677e8f"/><path d="M106.66667,256H85.33333V202.66667a32.035,32.035,0,0,1,32-32V192a10.68726,10.68726,0,0,0-10.66666,10.66667Z" style="fill:#556e81"/><path d="M426.66667,320a85.33255,85.33255,0,0,0-85.33334-85.33333H170.66667A85.33255,85.33255,0,0,0,85.33333,320h-.00006a63.99994,63.99994,0,0,0-63.99994,63.99994V490.66667H490.66667V383.99994A63.99994,63.99994,0,0,0,426.66673,320Z" style="fill:#ccd4da"/><path d="M415.22266,277.33325H234.6665V320h192A84.9086,84.9086,0,0,0,415.22266,277.33325Z" style="fill:#b8c3cb"/><path d="M256,320a85.33334,85.33334,0,0,0-170.66667,0h-.00006a63.99994,63.99994,0,0,0-63.99994,63.99994V490.66667H320V383.99994A63.99994,63.99994,0,0,0,256.00006,320Z" style="fill:#dfe4e7"/><path d="M170.66662,341.33333h.00009A42.66662,42.66662,0,0,1,213.33333,384V490.66667a0,0,0,0,1,0,0H128a0,0,0,0,1,0,0V384A42.66662,42.66662,0,0,1,170.66662,341.33333Z" style="fill:#677e8f"/><path d="M149.33333,490.66667H128V384a42.72225,42.72225,0,0,1,42.66667-42.66667v21.33334A21.34774,21.34774,0,0,0,149.33333,384Z" style="fill:#556e81"/><rect x="64" y="384" width="42.66667" height="42.66667" style="fill:#93a3af"/><rect x="64" y="384" width="21.33333" height="42.66667" style="fill:#677e8f"/><rect x="234.66667" y="384" width="42.66667" height="42.66667" style="fill:#93a3af"/><rect x="234.66667" y="384" width="21.33333" height="42.66667" style="fill:#677e8f"/><path d="M448,213.33333h0a21.33331,21.33331,0,0,1,21.33331,21.33331V256a0,0,0,0,1,0,0H426.66667a0,0,0,0,1,0,0V234.66665A21.33331,21.33331,0,0,1,448,213.33333Z" style="fill:#556e81"/><rect x="213.33333" y="192" width="21.33333" height="42.66667" style="fill:#456075"/><rect x="277.33333" y="192" width="21.33333" height="42.66667" style="fill:#456075"/><rect x="426.66667" y="234.66667" width="21.33333" height="21.33333" style="fill:#456075"/><path d="M234.66667,490.66667H213.33333V384a42.72225,42.72225,0,0,0-42.66666-42.66667V320a64.07,64.07,0,0,1,64,64Z" style="fill:#edf0f2"/><rect x="106.66667" y="384" width="21.33333" height="42.66667" style="fill:#edf0f2"/><rect x="277.33333" y="384" width="21.33333" height="42.66667" style="fill:#edf0f2"/><path d="M490.66667,256H469.33333V234.66667A21.34774,21.34774,0,0,0,448,213.33333V192a42.72225,42.72225,0,0,1,42.66667,42.66667Z" style="fill:#7f92a0"/></g></svg>