<svg xmlns="http://www.w3.org/2000/svg" viewBox="0 0 512 512"><title>Artboard 133</title><g id="Machu_Picchu" data-name="Machu Picchu"><polygon points="64 298.667 106.667 277.333 106.667 234.667 149.333 213.333 192 128 234.667 85.333 256 21.333 298.667 21.333 341.333 64 362.667 149.333 405.333 170.667 469.333 320 469.333 362.667 490.667 384 490.667 490.667 21.333 490.667 42.667 341.333 64 298.667" style="fill:#677e8f"/><polygon points="68.792 460.177 47.667 457.156 64.073 346.229 79.906 314.573 128 290.521 128 247.854 165.24 229.24 210.76 139.417 253.313 96.854 268.948 49.958 289.177 56.708 271.958 108.375 227.073 153.271 181.135 245.135 149.333 261.042 149.333 303.708 95.802 330.469 83.927 354.219 68.792 460.177" style="fill:#7f92a0"/><rect x="209.11667" y="114.12093" width="62.70417" height="21.33105" transform="translate(-17.80568 206.58619) rotate(-45)" style="fill:#adb9c2"/><line x1="138.66667" y1="254.44792" x2="173.1875" y2="237.1875" style="fill:#677e8f"/><rect x="136.62935" y="235.1498" width="38.59546" height="21.33582" transform="translate(-93.47136 95.68438) rotate(-26.56505)" style="fill:#7f92a0"/><polygon points="83.156 355.771 64.073 346.229 79.906 314.573 133.896 287.573 143.438 306.656 95.802 330.469 83.156 355.771" style="fill:#93a3af"/><polygon points="469.333 320 405.333 170.667 362.667 149.333 341.333 64 298.667 21.333 256 21.333 298.667 64 298.667 128 256 149.333 256 170.667 341.333 192 384 277.333 298.667 320 298.667 490.667 490.667 490.667 490.667 384 469.333 362.667 469.333 320" style="fill:#456075"/><rect x="170.66667" y="213.33333" width="42.66667" height="64" style="fill:#b37900"/><rect x="341.33333" y="213.33333" width="42.66667" height="64" style="fill:#b37900"/><rect x="170.66667" y="234.66667" width="42.66667" height="42.66667" style="fill:#9e6611"/><rect x="341.33333" y="234.66667" width="42.66667" height="42.66667" style="fill:#9e6611"/><polygon points="384 213.333 384 256 298.667 256 298.667 213.333 256 213.333 256 256 170.667 256 170.667 192 128 192 128 256 128 490.667 170.667 490.667 384 490.667 426.667 490.667 426.667 256 426.667 213.333 384 213.333" style="fill:#cb8c01"/><rect x="128" y="362.66667" width="298.66667" height="128" style="fill:#b37900"/><rect x="170.66667" y="298.66667" width="21.33333" height="21.33333" style="fill:#723603"/><rect x="192" y="298.66667" width="21.33333" height="21.33333" style="fill:#e0bb69"/><rect x="234.66667" y="298.66667" width="21.33333" height="21.33333" style="fill:#723603"/><rect x="256" y="298.66667" width="21.33333" height="21.33333" style="fill:#e0bb69"/><rect x="320" y="298.66667" width="21.33333" height="21.33333" style="fill:#e0bb69"/><rect x="384" y="298.66667" width="21.33333" height="21.33333" style="fill:#e0bb69"/><rect x="298.66667" y="298.66667" width="21.33333" height="21.33333" style="fill:#723603"/><rect x="362.66667" y="298.66667" width="21.33333" height="21.33333" style="fill:#723603"/><polygon points="298.667 320 384 341.333 405.333 384 448 405.333 490.667 448 490.667 490.667 256 490.667 149.333 490.667 149.333 448 234.667 405.333 256 362.667 298.667 320" style="fill:#7f92a0"/><polygon points="405.333 384 384 341.333 298.667 320 341.333 341.333 341.333 405.333 384 469.333 448 490.667 490.667 490.667 490.667 448 448 405.333 405.333 384" style="fill:#677e8f"/><rect x="64" y="341.33333" width="42.66667" height="64" style="fill:#e0bb69"/><rect x="234.66667" y="341.33333" width="42.66667" height="64" style="fill:#d6a436"/><rect x="64" y="362.66667" width="42.66667" height="42.66667" style="fill:#d6a436"/><rect x="234.66667" y="362.66667" width="42.66667" height="42.66667" style="fill:#cb8c01"/><polygon points="320 341.333 277.333 341.333 277.333 384 192 384 192 341.333 149.333 341.333 149.333 384 64 384 64 341.333 21.333 341.333 21.333 490.667 320 490.667 320 341.333" style="fill:#e9cf95"/><rect x="213.33333" y="469.33333" width="106.66667" height="21.33333" style="fill:#e0bb69"/><rect x="234.66667" y="469.33333" width="42.66667" height="21.33333" style="fill:#efddb4"/><polygon points="277.333 341.333 277.333 384 256 384 256 490.667 320 490.667 320 341.333 277.333 341.333" style="fill:#e0bb69"/><rect x="64" y="426.66667" width="21.33333" height="21.33333" style="fill:#723603"/><rect x="85.33333" y="426.66667" width="21.33333" height="21.33333" style="fill:#f4e8cc"/><rect x="128" y="426.66667" width="21.33333" height="21.33333" style="fill:#723603"/><rect x="149.33333" y="426.66667" width="21.33333" height="21.33333" style="fill:#f4e8cc"/><rect x="192" y="426.66667" width="21.33333" height="21.33333" style="fill:#723603"/><rect x="213.33333" y="426.66667" width="21.33333" height="21.33333" style="fill:#f4e8cc"/><rect x="277.33333" y="426.66667" width="21.33333" height="21.33333" style="fill:#f4e8cc"/><rect x="256" y="426.66667" width="21.33333" height="21.33333" style="fill:#723603"/><rect x="42.66667" y="341.33333" width="21.33333" height="21.33333" style="fill:#efddb4"/><rect x="170.66667" y="341.33333" width="21.33333" height="21.33333" style="fill:#efddb4"/><rect x="298.66667" y="341.33333" width="21.33333" height="21.33333" style="fill:#e9cf95"/><rect x="21.33333" y="405.33333" width="42.66667" height="21.33333" style="fill:#efddb4"/><rect x="85.33333" y="384" width="42.66667" height="21.33333" style="fill:#efddb4"/><rect x="149.33333" y="384" width="42.66667" height="21.33333" style="fill:#efddb4"/><rect x="42.66667" y="448" width="42.66667" height="21.33333" style="fill:#efddb4"/><rect x="106.66667" y="469.33333" width="42.66667" height="21.33333" style="fill:#efddb4"/><rect x="170.66667" y="448" width="42.66667" height="21.33333" style="fill:#efddb4"/><rect x="213.33333" y="384" width="42.66667" height="21.33333" style="fill:#efddb4"/><rect x="277.33333" y="405.33333" width="42.66667" height="21.33333" style="fill:#e9cf95"/><rect x="256" y="469.33333" width="21.33333" height="21.33333" style="fill:#e9cf95"/><rect x="298.66667" y="469.33333" width="21.33333" height="21.33333" style="fill:#e9cf95"/><rect x="149.33333" y="192" width="21.33333" height="21.33333" style="fill:#d6a436"/><rect x="128" y="234.66667" width="42.66667" height="21.33333" style="fill:#d6a436"/><rect x="170.66667" y="256" width="42.66667" height="21.33333" style="fill:#d6a436"/><rect x="234.66667" y="277.33333" width="42.66667" height="21.33333" style="fill:#d6a436"/><rect x="128" y="320" width="42.66667" height="21.33333" style="fill:#d6a436"/><rect x="128" y="277.33333" width="21.33333" height="21.33333" style="fill:#d6a436"/><rect x="298.66667" y="256" width="42.66667" height="21.33333" style="fill:#d6a436"/><rect x="362.66667" y="256" width="42.66667" height="21.33333" style="fill:#d6a436"/><rect x="405.33333" y="320" width="21.33333" height="21.33333" style="fill:#d6a436"/><rect x="277.33333" y="213.33333" width="21.33333" height="21.33333" style="fill:#d6a436"/><rect x="405.33333" y="213.33333" width="21.33333" height="21.33333" style="fill:#d6a436"/></g></svg>